<svg id="visual" viewBox="0 0 900 200" width="900" height="200" xmlns="http://www.w3.org/2000/svg" xmlns:xlink="http://www.w3.org/1999/xlink" version="1.1"><path d="M0 92L15 91.7C30 91.3 60 90.7 90 91C120 91.3 150 92.7 180 88.2C210 83.7 240 73.3 270 70.3C300 67.3 330 71.7 360 76.2C390 80.7 420 85.3 450 83.8C480 82.3 510 74.7 540 72.5C570 70.3 600 73.7 630 77.8C660 82 690 87 720 88.7C750 90.3 780 88.7 810 84.5C840 80.3 870 73.7 885 70.3L900 67L900 201L885 201C870 201 840 201 810 201C780 201 750 201 720 201C690 201 660 201 630 201C600 201 570 201 540 201C510 201 480 201 450 201C420 201 390 201 360 201C330 201 300 201 270 201C240 201 210 201 180 201C150 201 120 201 90 201C60 201 30 201 15 201L0 201Z" fill="#5659b1"></path><path d="M0 75L15 71.8C30 68.7 60 62.3 90 59.3C120 56.3 150 56.7 180 60.7C210 64.7 240 72.3 270 76.8C300 81.3 330 82.7 360 87.7C390 92.7 420 101.3 450 101.2C480 101 510 92 540 88.2C570 84.3 600 85.7 630 86.7C660 87.7 690 88.3 720 85.8C750 83.3 780 77.7 810 75.3C840 73 870 74 885 74.5L900 75L900 201L885 201C870 201 840 201 810 201C780 201 750 201 720 201C690 201 660 201 630 201C600 201 570 201 540 201C510 201 480 201 450 201C420 201 390 201 360 201C330 201 300 201 270 201C240 201 210 201 180 201C150 201 120 201 90 201C60 201 30 201 15 201L0 201Z" fill="#7b78c1"></path><path d="M0 86L15 92.7C30 99.3 60 112.7 90 119.3C120 126 150 126 180 123.2C210 120.3 240 114.7 270 112.2C300 109.7 330 110.3 360 113.3C390 116.3 420 121.7 450 124.7C480 127.7 510 128.3 540 125.8C570 123.3 600 117.7 630 114.2C660 110.7 690 109.3 720 109.7C750 110 780 112 810 108.8C840 105.7 870 97.3 885 93.2L900 89L900 201L885 201C870 201 840 201 810 201C780 201 750 201 720 201C690 201 660 201 630 201C600 201 570 201 540 201C510 201 480 201 450 201C420 201 390 201 360 201C330 201 300 201 270 201C240 201 210 201 180 201C150 201 120 201 90 201C60 201 30 201 15 201L0 201Z" fill="#9c98d0"></path><path d="M0 130L15 131.8C30 133.7 60 137.3 90 136C120 134.7 150 128.3 180 128C210 127.7 240 133.3 270 137C300 140.7 330 142.3 360 138.3C390 134.3 420 124.7 450 122.7C480 120.7 510 126.3 540 129.5C570 132.7 600 133.3 630 132.8C660 132.3 690 130.7 720 132.8C750 135 780 141 810 140.2C840 139.3 870 131.7 885 127.8L900 124L900 201L885 201C870 201 840 201 810 201C780 201 750 201 720 201C690 201 660 201 630 201C600 201 570 201 540 201C510 201 480 201 450 201C420 201 390 201 360 201C330 201 300 201 270 201C240 201 210 201 180 201C150 201 120 201 90 201C60 201 30 201 15 201L0 201Z" fill="#bdb9e0"></path><path d="M0 147L15 147.8C30 148.7 60 150.3 90 151.7C120 153 150 154 180 152.2C210 150.3 240 145.7 270 144.5C300 143.3 330 145.7 360 145.2C390 144.7 420 141.3 450 143.8C480 146.3 510 154.7 540 156C570 157.3 600 151.7 630 147.3C660 143 690 140 720 143C750 146 780 155 810 154.3C840 153.7 870 143.3 885 138.2L900 133L900 201L885 201C870 201 840 201 810 201C780 201 750 201 720 201C690 201 660 201 630 201C600 201 570 201 540 201C510 201 480 201 450 201C420 201 390 201 360 201C330 201 300 201 270 201C240 201 210 201 180 201C150 201 120 201 90 201C60 201 30 201 15 201L0 201Z" fill="#dedbef"></path><path d="M0 179L15 176.7C30 174.3 60 169.7 90 169.2C120 168.7 150 172.3 180 175.2C210 178 240 180 270 178.2C300 176.3 330 170.7 360 171C390 171.3 420 177.7 450 177.8C480 178 510 172 540 169.8C570 167.7 600 169.3 630 168C660 166.7 690 162.3 720 163C750 163.7 780 169.3 810 173C840 176.7 870 178.3 885 179.2L900 180L900 201L885 201C870 201 840 201 810 201C780 201 750 201 720 201C690 201 660 201 630 201C600 201 570 201 540 201C510 201 480 201 450 201C420 201 390 201 360 201C330 201 300 201 270 201C240 201 210 201 180 201C150 201 120 201 90 201C60 201 30 201 15 201L0 201Z" fill="#ffffff"></path></svg>