<svg id="visual" viewBox="0 0 900 200" width="900" height="200" xmlns="http://www.w3.org/2000/svg" xmlns:xlink="http://www.w3.org/1999/xlink" version="1.1"><path d="M0 46L15 45C30 44 60 42 90 49.3C120 56.7 150 73.3 180 81.2C210 89 240 88 270 81C300 74 330 61 360 62C390 63 420 78 450 82.3C480 86.7 510 80.3 540 79C570 77.7 600 81.3 630 78.5C660 75.7 690 66.3 720 61.8C750 57.3 780 57.7 810 64C840 70.3 870 82.7 885 88.8L900 95L900 201L885 201C870 201 840 201 810 201C780 201 750 201 720 201C690 201 660 201 630 201C600 201 570 201 540 201C510 201 480 201 450 201C420 201 390 201 360 201C330 201 300 201 270 201C240 201 210 201 180 201C150 201 120 201 90 201C60 201 30 201 15 201L0 201Z" fill="#5659b1"></path><path d="M0 97L15 98.5C30 100 60 103 90 105.7C120 108.3 150 110.7 180 109.5C210 108.3 240 103.7 270 103C300 102.3 330 105.7 360 106C390 106.3 420 103.7 450 99.5C480 95.3 510 89.7 540 91C570 92.3 600 100.7 630 101.2C660 101.7 690 94.3 720 87C750 79.7 780 72.3 810 75.3C840 78.3 870 91.7 885 98.3L900 105L900 201L885 201C870 201 840 201 810 201C780 201 750 201 720 201C690 201 660 201 630 201C600 201 570 201 540 201C510 201 480 201 450 201C420 201 390 201 360 201C330 201 300 201 270 201C240 201 210 201 180 201C150 201 120 201 90 201C60 201 30 201 15 201L0 201Z" fill="#7b78c1"></path><path d="M0 124L15 120.7C30 117.3 60 110.7 90 108.8C120 107 150 110 180 112C210 114 240 115 270 114.7C300 114.3 330 112.7 360 111.2C390 109.7 420 108.3 450 109C480 109.7 510 112.3 540 112.7C570 113 600 111 630 110.2C660 109.3 690 109.7 720 110.7C750 111.7 780 113.3 810 114.5C840 115.7 870 116.3 885 116.7L900 117L900 201L885 201C870 201 840 201 810 201C780 201 750 201 720 201C690 201 660 201 630 201C600 201 570 201 540 201C510 201 480 201 450 201C420 201 390 201 360 201C330 201 300 201 270 201C240 201 210 201 180 201C150 201 120 201 90 201C60 201 30 201 15 201L0 201Z" fill="#9c98d0"></path><path d="M0 113L15 116C30 119 60 125 90 125.2C120 125.3 150 119.7 180 119.3C210 119 240 124 270 128.8C300 133.7 330 138.3 360 137.5C390 136.7 420 130.3 450 128.8C480 127.3 510 130.7 540 128.5C570 126.3 600 118.7 630 118C660 117.3 690 123.7 720 128C750 132.3 780 134.7 810 131.8C840 129 870 121 885 117L900 113L900 201L885 201C870 201 840 201 810 201C780 201 750 201 720 201C690 201 660 201 630 201C600 201 570 201 540 201C510 201 480 201 450 201C420 201 390 201 360 201C330 201 300 201 270 201C240 201 210 201 180 201C150 201 120 201 90 201C60 201 30 201 15 201L0 201Z" fill="#bdb9e0"></path><path d="M0 163L15 161C30 159 60 155 90 150.3C120 145.7 150 140.3 180 142.7C210 145 240 155 270 157.2C300 159.3 330 153.7 360 148.2C390 142.7 420 137.3 450 135.3C480 133.3 510 134.7 540 137.3C570 140 600 144 630 147.5C660 151 690 154 720 154.8C750 155.7 780 154.3 810 151.2C840 148 870 143 885 140.5L900 138L900 201L885 201C870 201 840 201 810 201C780 201 750 201 720 201C690 201 660 201 630 201C600 201 570 201 540 201C510 201 480 201 450 201C420 201 390 201 360 201C330 201 300 201 270 201C240 201 210 201 180 201C150 201 120 201 90 201C60 201 30 201 15 201L0 201Z" fill="#dedbef"></path><path d="M0 157L15 159.3C30 161.7 60 166.3 90 169.5C120 172.7 150 174.3 180 174C210 173.7 240 171.3 270 172C300 172.7 330 176.3 360 176.2C390 176 420 172 450 170.7C480 169.3 510 170.7 540 171.8C570 173 600 174 630 172.7C660 171.3 690 167.7 720 164.7C750 161.7 780 159.3 810 161.8C840 164.3 870 171.7 885 175.3L900 179L900 201L885 201C870 201 840 201 810 201C780 201 750 201 720 201C690 201 660 201 630 201C600 201 570 201 540 201C510 201 480 201 450 201C420 201 390 201 360 201C330 201 300 201 270 201C240 201 210 201 180 201C150 201 120 201 90 201C60 201 30 201 15 201L0 201Z" fill="#ffffff"></path></svg>