<svg width="779" height="471" viewBox="0 0 779 471" fill="none" xmlns="http://www.w3.org/2000/svg">
<path d="M3.89158 81.1165C6.40392 39.8691 41.6807 9.61325 82.9031 6.72054C135.767 3.01088 228.36 -0.435639 388.942 0.0449955C583.05 0.625978 677.816 5.59497 723.153 9.65717C748.841 11.9588 767.872 28.6213 771.295 54.1836C775.541 85.896 779.471 141.236 777.835 235.045C776.327 321.483 772.926 375.259 769.744 407.985C766.829 437.967 745.837 459.001 715.832 461.667C667.786 465.937 572.903 470.599 388.942 470.045C219.344 469.534 125.457 465.633 74.1824 461.938C37.5063 459.295 6.18206 434.894 3.60615 398.213C1.32198 365.686 -0.29414 314.743 0.0449943 235.045C0.353599 162.522 1.90032 113.809 3.89158 81.1165Z" fill="url(#paint0_linear_2_15)"/>
<defs>
<linearGradient id="paint0_linear_2_15" x1="0" y1="235" x2="1018" y2="235" gradientUnits="userSpaceOnUse">
<stop stop-color="white"/>
<stop offset="1" stop-color="#978BDA" stop-opacity="0.54"/>
</linearGradient>
</defs>
</svg>
